<?xml version="1.0" standalone="no"?><!DOCTYPE svg PUBLIC "-//W3C//DTD SVG 1.1//EN" "http://www.w3.org/Graphics/SVG/1.1/DTD/svg11.dtd"><svg t="1686489342728" class="icon" viewBox="0 0 1024 1024" version="1.1" xmlns="http://www.w3.org/2000/svg" p-id="3419" xmlns:xlink="http://www.w3.org/1999/xlink" width="32" height="32"><path d="M196 928m-20 0a20 20 0 1 0 40 0 20 20 0 1 0-40 0Z" fill="#D4FFD4" p-id="3420"></path><path d="M576 108m-16 0a16 16 0 1 0 32 0 16 16 0 1 0-32 0Z" fill="#D4FFD4" p-id="3421"></path><path d="M308 528m-12 0a12 12 0 1 0 24 0 12 12 0 1 0-24 0Z" fill="#D4FFD4" p-id="3422"></path><path d="M576 548m-8 0a8 8 0 1 0 16 0 8 8 0 1 0-16 0Z" fill="#D4FFD4" p-id="3423"></path><path d="M908 920m-4 0a4 4 0 1 0 8 0 4 4 0 1 0-8 0Z" fill="#D4FFD4" p-id="3424"></path><path d="M996 864m-20 0a20 20 0 1 0 40 0 20 20 0 1 0-40 0Z" fill="#FFBDBD" p-id="3425"></path><path d="M224 124m-16 0a16 16 0 1 0 32 0 16 16 0 1 0-32 0Z" fill="#FFBDBD" p-id="3426"></path><path d="M748 516m-12 0a12 12 0 1 0 24 0 12 12 0 1 0-24 0Z" fill="#FFBDBD" p-id="3427"></path><path d="M72 828m-8 0a8 8 0 1 0 16 0 8 8 0 1 0-16 0Z" fill="#FFBDBD" p-id="3428"></path><path d="M76 444m-4 0a4 4 0 1 0 8 0 4 4 0 1 0-8 0Z" fill="#FFBDBD" p-id="3429"></path><path d="M420 96m-20 0a20 20 0 1 0 40 0 20 20 0 1 0-40 0Z" fill="#BBF1FF" p-id="3430"></path><path d="M936 524m-16 0a16 16 0 1 0 32 0 16 16 0 1 0-32 0Z" fill="#BBF1FF" p-id="3431"></path><path d="M556 916m-12 0a12 12 0 1 0 24 0 12 12 0 1 0-24 0Z" fill="#BBF1FF" p-id="3432"></path><path d="M412 508m-8 0a8 8 0 1 0 16 0 8 8 0 1 0-16 0Z" fill="#BBF1FF" p-id="3433"></path><path d="M852 128m-4 0a4 4 0 1 0 8 0 4 4 0 1 0-8 0Z" fill="#BBF1FF" p-id="3434"></path><path d="M28 124m-20 0a20 20 0 1 0 40 0 20 20 0 1 0-40 0Z" fill="#FFF4C5" p-id="3435"></path><path d="M96 524m-16 0a16 16 0 1 0 32 0 16 16 0 1 0-32 0Z" fill="#FFF4C5" p-id="3436"></path><path d="M728 96m-12 0a12 12 0 1 0 24 0 12 12 0 1 0-24 0Z" fill="#FFF4C5" p-id="3437"></path><path d="M624 548m-8 0a8 8 0 1 0 16 0 8 8 0 1 0-16 0Z" fill="#FFF4C5" p-id="3438"></path><path d="M632 932m-4 0a4 4 0 1 0 8 0 4 4 0 1 0-8 0Z" fill="#FFF4C5" p-id="3439"></path><path d="M230.2 310.44m-134.2 0a134.2 134.2 0 1 0 268.4 0 134.2 134.2 0 1 0-268.4 0Z" fill="#CBECF9" p-id="3440"></path><path d="M230.2 289.68m-113.4 0a113.4 113.4 0 1 0 226.8 0 113.4 113.4 0 1 0-226.8 0Z" fill="#FFFFFF" p-id="3441"></path><path d="M230.2 452.64A142.2 142.2 0 1 1 372.4 310.44a142.36 142.36 0 0 1-142.2 142.2z m0-268.4A126.2 126.2 0 1 0 356.4 310.44a126.32 126.32 0 0 0-126.2-126.2z" fill="#2FB1EA" p-id="3442"></path><path d="M129.56 310.44a100.64 100.64 0 0 0 201.28 0z" fill="#FFC444" p-id="3443"></path><path d="M152.76 333.64a77.44 77.44 0 0 0 154.88 0z" fill="#FFE76E" p-id="3444"></path><path d="M230.2 419.08a108.76 108.76 0 0 1-108.64-108.64 8 8 0 0 1 8-8h201.28a8 8 0 0 1 8 8 108.76 108.76 0 0 1-108.64 108.64zM137.88 318.44a92.64 92.64 0 0 0 184.6 0z" fill="#2FB1EA" p-id="3445"></path><path d="M793.8 713.56m-134.2 0a134.2 134.2 0 1 0 268.4 0 134.2 134.2 0 1 0-268.4 0Z" fill="#CBECF9" p-id="3446"></path><path d="M793.8 692.76m-113.4 0a113.4 113.4 0 1 0 226.8 0 113.4 113.4 0 1 0-226.8 0Z" fill="#FFFFFF" p-id="3447"></path><path d="M793.8 855.76A142.2 142.2 0 1 1 936 713.56a142.36 142.36 0 0 1-142.2 142.2z m0-268.4A126.2 126.2 0 1 0 920 713.56a126.32 126.32 0 0 0-126.2-126.2z" fill="#2FB1EA" p-id="3448"></path><path d="M693.16 713.56a100.64 100.64 0 0 0 201.28 0z" fill="#FFC444" p-id="3449"></path><path d="M716.36 736.76a77.44 77.44 0 0 0 154.88 0z" fill="#FFE76E" p-id="3450"></path><path d="M793.8 822.2a108.76 108.76 0 0 1-108.64-108.64 8 8 0 0 1 8-8h201.28a8 8 0 0 1 8 8 108.76 108.76 0 0 1-108.64 108.64z m-92.32-100.64a92.64 92.64 0 0 0 184.6 0z" fill="#2FB1EA" p-id="3451"></path><path d="M928 243.36v134.2a67.08 67.08 0 0 1-67.08 67.08h-301.96A67.08 67.08 0 0 1 492 377.56l-73.92-67.12L492 243.36a67.08 67.08 0 0 1 67.08-67.08h301.92A67.08 67.08 0 0 1 928 243.36z" fill="#CBECF9" p-id="3452"></path><path d="M900.92 243.36v105.8a67.08 67.08 0 0 1-67.08 67.08H576a67.08 67.08 0 0 1-67.08-67.08l-90.68-38.72L492 243.36a67.08 67.08 0 0 1 67.08-67.08h274.88a67.08 67.08 0 0 1 66.96 67.08z" fill="#FFFFFF" p-id="3453"></path><path d="M860.92 452.64h-301.96A75.2 75.2 0 0 1 484 381.16l-71.28-64.8a8 8 0 0 1 0-12L484 239.72a75.2 75.2 0 0 1 75-71.48h301.92A75.2 75.2 0 0 1 936 243.36v134.2a75.2 75.2 0 0 1-75.08 75.08zM429.96 310.44l67.28 61.16a8 8 0 0 1 2.6 5.92 59.16 59.16 0 0 0 59.08 59.08h301.92A59.16 59.16 0 0 0 920 377.56V243.36a59.16 59.16 0 0 0-59.08-59.08h-301.96A59.16 59.16 0 0 0 500 243.36a8 8 0 0 1-2.6 5.92z" fill="#2FB1EA" p-id="3454"></path><path d="M545.56 243.36l315.36 0 0 40.24-315.36 0 0-40.24Z" fill="#90FC95" p-id="3455"></path><path d="M545.56 337.28l315.36 0 0 40.24-315.36 0 0-40.24Z" fill="#90FC95" p-id="3456"></path><path d="M96 646.44v134.2a67.08 67.08 0 0 0 67.08 67.08h301.92A67.08 67.08 0 0 0 532 780.64l73.8-67.08L532 646.44a67.08 67.08 0 0 0-67.08-67.08H163.08A67.08 67.08 0 0 0 96 646.44z" fill="#CBECF9" p-id="3457"></path><path d="M123.08 646.44v105.8a67.08 67.08 0 0 0 67.08 67.08H448a67.08 67.08 0 0 0 67.08-67.08l90.68-38.72L532 646.44a67.08 67.08 0 0 0-67.08-67.08H190.16a67.08 67.08 0 0 0-67.08 67.08z" fill="#FFFFFF" p-id="3458"></path><path d="M465.04 855.76H163.08A75.2 75.2 0 0 1 88 780.64v-134.2a75.2 75.2 0 0 1 75.08-75.08h301.92A75.2 75.2 0 0 1 540 642.84l71.28 64.8a8 8 0 0 1 0 12L540 784.28a75.2 75.2 0 0 1-74.96 71.48z m-301.92-268.4A59.16 59.16 0 0 0 104 646.44v134.2a59.16 59.16 0 0 0 59.08 59.08h301.92A59.16 59.16 0 0 0 524 780.64a8 8 0 0 1 2.6-5.92l67.28-61.16-67.28-61.16a8 8 0 0 1-2.6-5.92 59.16 59.16 0 0 0-59.08-59.08z" fill="#2FB1EA" p-id="3459"></path><path d="M478.48 686.72l-315.36 0 0-40.24 315.36 0 0 40.24Z" fill="#FF8888" p-id="3460"></path><path d="M478.48 780.64l-315.36 0 0-40.24 315.36 0 0 40.24Z" fill="#FF8888" p-id="3461"></path></svg>