<?xml version="1.0" standalone="no"?><!DOCTYPE svg PUBLIC "-//W3C//DTD SVG 1.1//EN" "http://www.w3.org/Graphics/SVG/1.1/DTD/svg11.dtd"><svg t="1688307537454" class="icon" viewBox="0 0 1024 1024" version="1.1" xmlns="http://www.w3.org/2000/svg" p-id="4870" xmlns:xlink="http://www.w3.org/1999/xlink" width="16" height="16"><path d="M832 704a42.666667 42.666667 0 0 0-42.666667 42.666667v106.666666H170.666667V170.666667h618.666666v226.133333a42.666667 42.666667 0 0 0 85.333334 0V166.4A83.2 83.2 0 0 0 789.333333 85.333333H170.666667a83.2 83.2 0 0 0-85.333334 81.066667v691.2A83.413333 83.413333 0 0 0 170.666667 938.666667h618.666666a83.413333 83.413333 0 0 0 85.333334-81.066667V746.666667a42.666667 42.666667 0 0 0-42.666667-42.666667z" fill="#67c23a" p-id="4871"></path><path d="M682.666667 341.333333a42.666667 42.666667 0 0 0-42.666667-42.666666H298.666667a42.666667 42.666667 0 0 0 0 85.333333h341.333333a42.666667 42.666667 0 0 0 42.666667-42.666667zM298.666667 512a42.666667 42.666667 0 0 0 0 85.333333h213.333333a42.666667 42.666667 0 0 0 0-85.333333zM921.386667 491.733333a42.666667 42.666667 0 0 0-60.373334 0L649.813333 704l-60.16-60.373333A42.666667 42.666667 0 0 0 529.28 704l90.453333 90.453333a42.666667 42.666667 0 0 0 60.373334 0l241.28-242.346666a42.666667 42.666667 0 0 0 0-60.373334z" fill="#67c23a" p-id="4872"></path></svg>